<svg width="54" height="52" viewBox="0 0 54 52" fill="none" xmlns="http://www.w3.org/2000/svg">
<path fill-rule="evenodd" clip-rule="evenodd" d="M51.7403 32.9903C52.7638 30.5755 53.4247 27.2604 53.1376 25.982C53.1204 25.9054 51.7879 25.9954 51.4069 26.0988C51.1136 26.1785 51.1025 26.2059 51.0645 26.9375C50.9412 29.3161 49.7977 32.5451 47.9428 35.7529L47.1216 37.173L47.6112 37.7676C47.8804 38.0946 48.1868 38.4565 48.292 38.5721L48.4835 38.782L49.8755 36.444C50.7045 35.0516 51.4587 33.6546 51.7403 32.9903ZM47.2522 39.9608C47.1729 39.8602 46.6812 39.2835 46.1598 38.6795C41.8242 33.6582 38.0828 27.2274 36.2601 21.6639L35.8617 20.4483L35.0664 21.6981L34.271 22.9478L34.578 23.9075C36.1745 28.8985 40.1179 35.4404 44.5604 40.4684C45.8738 41.9549 45.7756 41.922 46.5032 41.1199C46.766 40.8303 47.0745 40.4921 47.1887 40.3685C47.3399 40.205 47.3571 40.0938 47.2522 39.9608ZM44.0916 42.5032C39.98 38.2199 35.6977 31.5075 33.4086 25.7582L33.0853 24.9461L32.3146 26.2273L31.5439 27.5084L32.2177 29.0289C34.3946 33.941 38.3128 39.8587 41.7585 43.4387C42.0316 43.7224 42.3062 44.0176 42.3689 44.0948C42.4754 44.2261 44.229 43.2722 44.3982 42.991C44.4324 42.9341 44.2944 42.7146 44.0916 42.5032ZM39.7075 43.6881C36.5036 40.0684 33.0078 34.8397 31.253 31.043C30.9663 30.4226 30.6658 29.7867 30.5854 29.6299L30.4391 29.3448L29.6967 30.5788L28.9544 31.8129L29.4242 32.7967C31.1292 36.3674 34.0994 40.8419 36.9959 44.2031L37.6811 44.9981L38.2559 45.0423C38.9111 45.0928 40.5381 44.9479 40.6073 44.8329C40.6326 44.7909 40.2276 44.2758 39.7075 43.6881ZM52.498 23.3655C51.9083 21.9546 51.9995 21.9967 50.1207 22.2699C46.8357 22.7478 43.0679 23.9472 40.2368 25.4166L39.6896 25.7005L40.1409 26.5922C40.6909 27.6791 40.6232 27.639 41.3377 27.2987C44.4065 25.838 48.4763 24.6662 51.6326 24.3348C52.9356 24.1979 52.8745 24.2663 52.498 23.3655ZM47.9514 31.7776C48.7633 29.862 49.5932 26.5159 49.269 26.4644C49.2201 26.4567 48.6433 26.5836 47.9876 26.7465L46.7949 27.0427L46.5933 28.0487C46.2594 29.7154 45.7559 31.1926 44.8147 33.2676L44.5379 33.8782L45.0187 34.5397C45.9229 35.7836 45.7533 35.813 46.6756 34.2522C47.1172 33.5047 47.6915 32.3912 47.9514 31.7776ZM50.4547 20.3035C50.365 20.1396 49.0042 18.9451 48.6962 18.7598C47.7134 18.1685 37.8924 21.1307 38.155 21.9392C38.3481 22.5331 38.9345 23.9524 39.0006 23.9858C39.0423 24.0068 39.8872 23.6567 40.8783 23.208C43.4184 22.0579 44.8202 21.6063 47.8542 20.9602C49.3122 20.6497 50.4825 20.3542 50.4547 20.3035ZM44.0538 30.4329C44.4221 29.4409 44.8673 27.9394 44.8397 27.7821C44.8217 27.6798 41.9773 28.8638 41.6481 29.1106C41.5369 29.1939 43.0472 31.8938 43.285 32.0369C43.3811 32.0947 43.6293 31.5769 44.0538 30.4329ZM34.3546 43.6671C32.5592 41.5566 29.6466 37.0799 28.2654 34.3078L27.8976 33.5696L27.351 34.4791C25.7454 37.1505 28.809 41.5381 33.9847 43.9798C34.8547 44.3903 34.9217 44.3335 34.3546 43.6671ZM45.5526 16.9552C42.0766 15.4423 38.6598 15.6797 37.5584 17.5105L37.047 18.3605L37.2913 19.2142L37.5356 20.0676L38.0009 19.8364C39.6069 19.0385 42.2422 18.1203 44.3765 17.6151C46.1155 17.2035 46.1188 17.2016 45.5526 16.9552ZM36.5687 14.9307C36.5091 14.717 36.3409 14.5269 36.0645 14.3606C35.1604 13.8167 35.7865 12.945 29.1102 24.0429C22.4339 35.1409 22.9106 34.1793 23.8148 34.7232C24.7189 35.2671 24.0928 36.1388 30.7691 25.0409C36.5798 15.3817 36.6572 15.2469 36.5687 14.9307ZM16.5325 46.4063C16.7906 45.0683 16.6365 44.1909 15.6062 41.1332C14.9079 39.0609 14.9336 38.4062 15.767 37.0468C16.6335 35.6334 17.7656 34.767 19.0396 34.5423C19.9102 34.3887 19.9189 34.3794 19.4548 34.1002C19.0408 33.8512 18.5535 33.2599 18.4109 32.8338C18.0609 31.7876 15.1231 34.036 13.8357 36.3352C12.7098 38.3459 12.7392 39.086 14.1097 43.2296C14.7322 45.1118 14.7314 45.6713 14.1046 46.8347C13.3267 48.2788 12.2552 48.9709 10.787 48.9779C9.6941 48.983 9.56286 49.0254 9.30249 49.4582C8.38478 50.9837 11.5526 51.5983 13.6592 50.3033C14.9513 49.5092 16.2821 47.704 16.5325 46.4063ZM33.251 12.9348C33.1914 12.7211 33.0232 12.531 32.7468 12.3647C31.8426 11.8208 32.4688 10.9491 25.7925 22.0471C19.1162 33.145 19.5929 32.1834 20.4971 32.7273C21.4012 33.2712 20.7751 34.1429 27.4514 23.045C33.2621 13.3859 33.3394 13.251 33.251 12.9348ZM29.9333 10.9389C29.8737 10.7252 29.7055 10.5352 29.4291 10.3689C28.5249 9.82494 29.1511 8.95326 22.4748 20.0512C15.7985 31.1491 16.2752 30.1875 17.1793 30.7314C18.0835 31.2754 17.4574 32.147 24.1336 21.0491C29.9444 11.39 30.0217 11.2551 29.9333 10.9389ZM26.365 8.89318C26.2272 7.61325 25.4607 6.0555 24.3435 4.78496C23.5081 3.83476 23.4883 3.91822 24.0613 5.97395C24.5307 7.65791 24.9452 9.70616 25.1438 11.324L25.1968 11.7559L25.8236 10.7215L26.4505 9.68695L26.365 8.89318ZM23.5514 13.3103C23.3873 9.99261 22.5975 6.46372 21.2271 2.92501C20.8839 2.0392 20.8678 2.01877 20.1837 1.60821C19.5077 1.2026 18.1523 0.595242 17.916 0.592146C17.8515 0.591223 18.0917 1.25986 18.45 2.07795C20.047 5.72484 21.4653 11.4288 21.3698 13.8201C21.3528 14.2483 21.2892 14.2068 22.4214 14.5068C23.5609 14.8087 23.6224 14.7438 23.5514 13.3103ZM22.3795 16.2607C22.3286 16.2301 21.3895 15.9937 20.2925 15.7355C14.1592 14.2911 8.27741 13.913 2.12779 14.5675L0.555681 14.7349L0.411655 15.3313C0.332529 15.6593 0.238913 16.2049 0.203748 16.5436L0.139649 17.1597L1.94358 16.9689C7.65657 16.3646 14.6554 16.8068 20.1087 18.1165L21.1573 18.3683L21.8146 17.3423C22.1761 16.778 22.4303 16.2913 22.3795 16.2607ZM20.208 19.8878C20.0817 19.8123 16.9477 19.1898 15.8251 19.0172C11.1771 18.3027 5.88001 18.2103 1.32762 18.7643C-0.0787022 18.9356 0.0231175 18.8144 0.247231 20.0498C0.467156 21.2615 0.419101 21.2278 1.73031 21.0876C6.71747 20.5541 12.4816 20.8016 17.593 21.7687L19.0184 22.0383L19.6521 20.9863C20.0007 20.4078 20.2508 19.9133 20.208 19.8878ZM16.5683 23.3019C11.7517 22.4684 6.64044 22.2949 1.82883 22.8015C1.28971 22.8583 1.3194 23.0262 2.02739 23.9265C2.95615 25.1073 2.74585 25.0465 5.68126 24.9832C9.21528 24.9071 13.0428 25.1503 15.9047 25.6329L16.77 25.7788L17.4352 24.6729L18.1005 23.5671L16.5683 23.3019ZM15.7639 27.3467C15.2475 27.036 9.02253 26.5921 6.29711 26.6715L5.12823 26.7056L6.60952 27.5291C9.60942 29.1968 12.7484 29.5992 14.8232 28.5823C15.1488 28.4226 15.9037 27.4308 15.7639 27.3467ZM19.5153 12.5645C19.1499 8.91558 17.9786 4.91468 16.2163 1.29605L15.6019 0.0341922L14.6413 0.0416726C13.1234 0.0535023 13.1436 0.0255725 13.7504 1.27257C15.3067 4.4705 16.6311 8.59967 17.0979 11.7083L17.344 13.3477L18.125 13.5044C19.4558 13.7711 19.6008 13.7969 19.6173 13.7691C19.6261 13.7542 19.5802 13.2122 19.5153 12.5645ZM15.3563 11.764C14.8903 8.83478 13.7308 5.19512 12.347 2.3178C11.4565 0.466183 11.5582 0.536374 10.5071 1.04729C9.45161 1.56036 9.49792 1.429 10.0136 2.44798C11.3771 5.14201 12.661 9.19886 13.179 12.4513L13.2364 12.8111L14.376 12.944C15.0027 13.0173 15.5243 13.0623 15.5351 13.0444C15.546 13.0263 15.4654 12.4502 15.3563 11.764ZM11.2152 11.3444C10.7335 8.8926 8.67219 2.94823 8.20657 2.66829C8.12084 2.61672 6.81938 3.82023 6.67202 4.08741C6.60485 4.20929 6.76429 4.7455 7.1031 5.53758C7.39903 6.22877 8.00086 8.07588 8.44074 9.6421C8.88062 11.2083 9.26806 12.5063 9.30177 12.5266C9.40581 12.5892 11.3861 12.6652 11.4204 12.6079C11.4382 12.5783 11.346 12.0097 11.2152 11.3444ZM6.8682 10.3757C6.56517 9.23363 6.09774 7.7138 5.82959 6.99836L5.34211 5.69754L5.03851 6.03848C4.87152 6.22592 4.54198 6.6941 4.30611 7.07868L3.87739 7.77781L4.56483 10.1904L5.25214 12.603L6.30968 12.5711C7.5954 12.5324 7.51964 12.8302 6.8682 10.3757ZM3.04371 11.1645L2.65913 9.80292L2.44187 10.1641C2.08931 10.7501 1.23738 12.6659 1.27027 12.799C1.30405 12.9357 3.17826 12.7759 3.33093 12.6234C3.38443 12.5699 3.25507 11.9134 3.04371 11.1645Z" fill="#C60A05"/>
</svg>
