<?xml version="1.0" encoding="iso-8859-1"?>
<!-- Generator: Adobe Illustrator 19.0.0, SVG Export Plug-In . SVG Version: 6.00 Build 0)  -->
<svg version="1.1" id="Layer_1" xmlns="http://www.w3.org/2000/svg" xmlns:xlink="http://www.w3.org/1999/xlink" x="0px" y="0px"
	 viewBox="0 0 512 512" style="enable-background:new 0 0 512 512;" xml:space="preserve">
<g>
	<g>
		<g>
			<path d="M457.819,0H54.173C41.076,0,30.363,10.714,30.363,23.816v71.439c0,13.097,10.714,23.816,23.811,23.816h403.645
				c13.097,0,23.818-10.719,23.818-23.816V23.816C481.637,10.714,470.916,0,457.819,0z M341.242,65.347h-61.005
				c-3.187,0-5.811-2.619-5.811-5.806c0-3.2,2.621-5.816,5.811-5.816h61.005c3.192,0,5.814,2.619,5.814,5.816
				C347.053,62.728,344.434,65.347,341.242,65.347z M378.044,72.604c-7.224,0-13.079-5.855-13.079-13.064
				c0-7.229,5.855-13.079,13.079-13.079c7.214,0,13.066,5.85,13.066,13.079C391.108,66.749,385.258,72.604,378.044,72.604z
				 M422.097,72.604c-7.219,0-13.074-5.855-13.074-13.064c0-7.229,5.855-13.079,13.074-13.079c7.224,0,13.074,5.85,13.074,13.079
				C435.171,66.749,429.321,72.604,422.097,72.604z"/>
			<path d="M457.819,142.886H54.173c-13.097,0-23.811,10.716-23.811,23.805v71.45c0,13.097,10.714,23.805,23.811,23.805h403.645
				c13.097,0,23.818-10.708,23.818-23.805v-71.45C481.637,153.603,470.916,142.886,457.819,142.886z M341.242,208.225h-61.005
				c-3.187,0-5.811-2.609-5.811-5.806c0-3.195,2.621-5.806,5.811-5.806h61.005c3.192,0,5.814,2.614,5.814,5.806
				C347.053,205.617,344.434,208.225,341.242,208.225z M378.044,215.488c-7.224,0-13.079-5.85-13.079-13.069
				s5.855-13.069,13.079-13.069c7.214,0,13.066,5.85,13.066,13.069C391.108,209.638,385.258,215.488,378.044,215.488z
				 M422.097,215.488c-7.219,0-13.074-5.85-13.074-13.069s5.855-13.069,13.074-13.069c7.224,0,13.074,5.85,13.074,13.069
				S429.321,215.488,422.097,215.488z"/>
			<path d="M457.819,285.765H54.173c-13.097,0-23.811,10.724-23.811,23.818v71.447c0,13.092,10.714,23.808,23.811,23.808h403.645
				c13.097,0,23.818-10.716,23.818-23.808v-71.447C481.637,296.489,470.916,285.765,457.819,285.765z M341.242,351.112h-61.005
				c-3.187,0-5.811-2.614-5.811-5.806c0-3.195,2.621-5.816,5.811-5.816h61.005c3.192,0,5.814,2.621,5.814,5.816
				C347.053,348.5,344.434,351.112,341.242,351.112z M378.044,358.374c-7.224,0-13.079-5.85-13.079-13.066
				c0-7.219,5.855-13.074,13.079-13.074c7.214,0,13.066,5.855,13.066,13.074C391.108,352.525,385.258,358.374,378.044,358.374z
				 M422.097,358.374c-7.219,0-13.074-5.85-13.074-13.066c0-7.219,5.855-13.074,13.074-13.074c7.224,0,13.074,5.855,13.074,13.074
				C435.171,352.525,429.321,358.374,422.097,358.374z"/>
			<path d="M195.27,470.326H90.49c-3.93,0-7.145,3.221-7.145,7.142v9.526c0,3.932,3.218,7.148,7.145,7.148H195.27
				c3.932,0,7.148-3.215,7.148-7.148v-9.526C202.418,473.546,199.203,470.326,195.27,470.326z"/>
			<path d="M421.503,470.326H316.722c-3.932,0-7.142,3.221-7.142,7.142v9.526c0,3.932,3.21,7.148,7.142,7.148h104.781
				c3.927,0,7.148-3.215,7.148-7.148v-9.526C428.65,473.546,425.43,470.326,421.503,470.326z"/>
			<path d="M278.616,452.465H267.9v-16.671c0-1.828-0.691-3.648-2.086-5.051c-1.39-1.395-3.226-2.092-5.051-2.092h-9.526
				c-1.83,0-3.658,0.696-5.056,2.092c-1.395,1.403-2.097,3.223-2.097,5.051v16.671h-10.714c-1.818,0-3.648,0.694-5.051,2.097
				c-1.39,1.39-2.097,3.22-2.097,5.051v45.245c0,1.83,0.707,3.658,2.097,5.056c1.403,1.393,3.233,2.086,5.051,2.086h45.245
				c1.83,0,3.658-0.694,5.061-2.086c1.393-1.398,2.092-3.226,2.092-5.056v-45.245c0-1.83-0.701-3.661-2.092-5.051
				C282.275,453.158,280.447,452.465,278.616,452.465z"/>
		</g>
	</g>
</g>
<g>
</g>
<g>
</g>
<g>
</g>
<g>
</g>
<g>
</g>
<g>
</g>
<g>
</g>
<g>
</g>
<g>
</g>
<g>
</g>
<g>
</g>
<g>
</g>
<g>
</g>
<g>
</g>
<g>
</g>
</svg>
