<?xml version="1.0" ?><svg viewBox="0 0 88 88" xmlns="http://www.w3.org/2000/svg"><title/><g id="Pentool"><path d="M79,36H76.9766a32.8015,32.8015,0,0,0-21.6-30H72.142a4,4,0,1,0,0-2H48V2a1,1,0,0,0-1-1H41a1,1,0,0,0-1,1V4H15.858a4,4,0,1,0,0,2H32.6232a32.8015,32.8015,0,0,0-21.6,30H9a1,1,0,0,0-1,1v6a1,1,0,0,0,1,1h6a1,1,0,0,0,1-1V37a1,1,0,0,0-1-1H13.0234A30.815,30.815,0,0,1,40,6.2631V8a1,1,0,0,0,1,1h6a1,1,0,0,0,1-1V6.2631A30.815,30.815,0,0,1,74.9766,36H73a1,1,0,0,0-1,1v6a1,1,0,0,0,1,1h6a1,1,0,0,0,1-1V37A1,1,0,0,0,79,36Z"/><path d="M46.8945,13.5527A1,1,0,0,0,45,14V46.41a1,1,0,0,0,.5947.914,4,4,0,1,1-3.1894,0A1,1,0,0,0,43,46.41V14a1,1,0,0,0-1.8945-.4473l-19,38a1.0008,1.0008,0,0,0,0,.8946L29.3818,67H58.6182l7.2763-14.5527a1.0008,1.0008,0,0,0,0-.8946Z"/><rect height="8" rx="1" ry="1" width="36" x="26" y="69"/><path d="M29,86a1,1,0,0,0,1,1H58a1,1,0,0,0,1-1V79H29Z"/></g></svg>