<?xml version="1.0" ?><svg height="36" id="svg4488" version="1.1" width="36" xmlns="http://www.w3.org/2000/svg" xmlns:cc="http://creativecommons.org/ns#" xmlns:dc="http://purl.org/dc/elements/1.1/" xmlns:inkscape="http://www.inkscape.org/namespaces/inkscape" xmlns:rdf="http://www.w3.org/1999/02/22-rdf-syntax-ns#" xmlns:sodipodi="http://sodipodi.sourceforge.net/DTD/sodipodi-0.dtd" xmlns:svg="http://www.w3.org/2000/svg"><defs id="defs4490"/><g id="layer1" transform="translate(0,-1016.3622)"><path d="m 3.999995,1019.3622 28,0 c 0.53028,0 1.00782,0.5 1.00782,1.2129 l 0,17.7871 -30.00782,0 0,1 30.00782,0 0,2.8008 c 0,0.7128 -0.47754,1.2129 -1.00782,1.2129 l -10,0 0,-0.014 -8,0 0,0.014 -10,0 c -0.53028,0 -1.00781,-0.5001 -1.00781,-1.2129 l 0,-21.5879 c 0,-0.7129 0.47753,-1.2129 1.00781,-1.2129 z m 1,2 0,0.5 0,14.5 26,0 0,-15 z m 1,1 24,0 0,13 -24,0 z m 12,18 c -0.54636,0 -1,0.4536 -1,1 0,0.5464 0.45364,1 1,1 0.54637,0 1.00001,-0.4536 1,-1 1e-5,-0.5464 -0.45363,-1 -1,-1 z m -3,4.0137 6,0 0,2.9863 -6,0 z m -4.43164,3.9863 14.86133,0 c 0.34186,0 0.57031,0.2331 0.57031,0.5 0,0.2669 -0.22845,0.5 -0.57031,0.5 l -14.86133,0 c -0.34184,0 -0.56836,-0.2331 -0.56836,-0.5 0,-0.2669 0.22652,-0.5 0.56836,-0.5 z" id="rect4113" style="font-size:medium;font-style:normal;font-variant:normal;font-weight:normal;font-stretch:normal;text-indent:0;text-align:start;text-decoration:none;line-height:normal;letter-spacing:normal;word-spacing:normal;text-transform:none;direction:ltr;block-progression:tb;writing-mode:lr-tb;text-anchor:start;baseline-shift:baseline;color:#000000;fill:#000000;fill-opacity:1;fill-rule:nonzero;stroke:none;visibility:visible;display:inline;overflow:visible;enable-background:accumulate;font-family:sans-serif"/></g></svg>