<?xml version="1.0" encoding="utf-8"?>
<!-- Generator: Adobe Illustrator 16.0.0, SVG Export Plug-In . SVG Version: 6.00 Build 0)  -->
<!DOCTYPE svg PUBLIC "-//W3C//DTD SVG 1.1//EN" "http://www.w3.org/Graphics/SVG/1.1/DTD/svg11.dtd">
<svg version="1.1" id="PUZZLE" xmlns="http://www.w3.org/2000/svg" xmlns:xlink="http://www.w3.org/1999/xlink" x="0px" y="0px"
	 width="1800px" height="1800px" viewBox="0 0 1800 1800" enable-background="new 0 0 1800 1800" xml:space="preserve">
<path fill="#333333" d="M1794.799,86.801c0-45.832-38.102-83.119-84.936-83.119H901.35h-3.8H93.755
	c-45.832,0-83.119,38.102-83.119,84.94v812.311c0,1.243,0.092,2.47,0.231,3.678c-0.14,1.208-0.231,2.424-0.231,3.677v807.594
	c0,45.832,38.101,83.119,84.936,83.119h808.513h3.8h803.795c45.831,0,83.119-38.102,83.119-84.94V901.747
	c0-1.243-0.093-2.469-0.232-3.677c0.14-1.208,0.232-2.428,0.232-3.675V86.801z M1732.043,86.801v776.217h-243.219
	c33.027-37.121,52.45-85.802,52.45-137.973c0-41.45-12.262-80.067-33.282-112.504c-36.425-59.971-102.365-100.121-177.514-100.121
	c-114.426,0-207.517,93.091-207.517,207.517c0.005,41.893,12.554,81.503,34.587,114.715c6.236,10.024,13.272,19.537,21.129,28.366
	H932.727V524.099c0-10.37-5.047-19.532-12.799-25.249c-5.691-5.796-13.609-9.398-22.378-9.398h-9.739
	c-13.483,0-25.455,8.61-29.745,21.393c-19.808,59.008-74.951,98.65-137.22,98.65c-23.59,0-45.862-5.708-65.561-15.764
	c-43.652-24.956-73.156-71.948-73.156-125.733c0-79.827,64.939-144.771,144.763-144.771c22.955,0,44.921,5.427,64.527,15.189
	c30.695,17.146,54.906,45.228,66.646,80.208c2.933,8.746,9.508,15.457,17.659,18.871c5.182,3.673,11.468,5.787,18.131,5.787h7.494
	c17.33,0,31.377-14.042,31.377-31.377V66.437h777.137C1722.093,66.437,1732.043,75.573,1732.043,86.801z M73.392,88.622
	c0-12.23,9.136-22.185,20.364-22.185h772.417v247.737c-13.447-12.178-28.418-22.575-44.58-30.861
	c-30.126-16.726-64.584-26.107-100.747-26.107c-114.426,0-207.517,93.095-207.517,207.525c0,80.024,45.557,149.56,112.072,184.172
	c30.029,16.915,64.641,26.61,101.491,26.61c52.805,0,101.994-19.926,139.281-53.694v247.732h-338.39
	c-17.33,0-31.377,14.048-31.377,31.38v9.735c0,7.117,2.447,13.771,6.588,19.139c3.633,7.257,10.016,13.019,18.07,15.715
	c31.597,10.61,57.555,31.412,74.938,57.948c13.067,21.914,20.447,47.364,20.447,74.163c0,79.827-64.939,144.762-144.762,144.762
	c-50.271,0-94.618-25.766-120.581-64.769c-13.273-21.861-20.92-47.495-20.92-74.881c-0.004-62.264,39.646-117.412,98.659-137.224
	c12.782-4.29,21.392-16.258,21.392-29.74v-7.494c0-5.953-1.685-11.489-4.557-16.229c-3.83-13.005-15.842-22.505-30.086-22.505
	H73.392V88.622z M73.392,1715.881V939.665h243.219c-33.028,37.12-52.45,85.797-52.45,137.968c0,41.454,12.266,80.072,33.286,112.51
	c36.42,59.97,102.362,100.119,177.51,100.119c114.426,0,207.517-93.09,207.517-207.517c-0.005-41.892-12.56-81.508-34.587-114.724
	c-6.238-10.024-13.272-19.532-21.125-28.356h245.946v338.919c0,10.374,5.051,19.54,12.804,25.248
	c5.69,5.796,13.609,9.395,22.373,9.395h9.74c13.482,0,25.455-8.606,29.744-21.388c19.809-59.008,74.951-98.65,137.22-98.65
	c23.577,0,45.836,5.699,65.53,15.741c43.67,24.951,73.187,71.956,73.187,125.756c0,79.817-64.938,144.762-144.762,144.762
	c-22.96,0-44.931-5.42-64.536-15.19c-30.69-17.142-54.894-45.228-66.639-80.203c-2.938-8.746-9.512-15.461-17.671-18.876
	c-5.18-3.668-11.461-5.778-18.118-5.778h-7.495c-17.33,0-31.377,14.044-31.377,31.378v345.468H95.572
	C83.341,1736.245,73.392,1727.104,73.392,1715.881z M1732.043,1714.06c0,12.231-9.135,22.186-20.363,22.186H939.263v-247.737
	c13.443,12.17,28.414,22.57,44.571,30.852c30.125,16.731,64.589,26.117,100.755,26.117c114.427,0,207.518-93.1,207.518-207.526
	c0-80.037-45.569-149.586-112.098-184.185c-30.024-16.906-64.624-26.598-101.465-26.598c-52.805,0-101.999,19.926-139.281,53.693
	V933.124h338.39c17.33,0,31.377-14.043,31.377-31.377v-9.738c0-7.113-2.447-13.767-6.593-19.133
	c-3.628-7.258-10.015-13.019-18.065-15.72c-31.597-10.607-57.559-31.408-74.938-57.949c-13.066-21.909-20.446-47.364-20.446-74.163
	c0-79.823,64.938-144.762,144.762-144.762c50.266,0,94.618,25.761,120.581,64.764c13.268,21.861,20.919,47.5,20.919,74.889
	c0.005,62.265-39.646,117.408-98.658,137.22c-12.782,4.29-21.393,16.262-21.393,29.745v7.494c0,5.952,1.686,11.484,4.557,16.23
	c3.83,13,15.838,22.499,30.087,22.499h342.201V1714.06z"/>
<g>
</g>
<g>
</g>
<g>
</g>
<g>
</g>
<g>
</g>
<g>
</g>
</svg>
