<svg width="40" height="40" viewBox="0 0 40 40" fill="none" xmlns="http://www.w3.org/2000/svg">
  <path
    d="M21.6614 5.55469C22.1427 5.55469 22.5344 5.97848 22.5463 6.50624L22.5466 6.53105V17.7063C22.5466 18.2373 22.1624 18.6692 21.6839 18.6824L21.6614 18.6827H13.3995C12.9182 18.6827 12.5265 18.2589 12.5146 17.7312L12.5143 17.7063V6.53105C12.5143 6.00012 12.8985 5.56816 13.377 5.555L13.3995 5.55469H21.6614ZM21.6614 5.9891H13.3995C13.1339 5.9891 12.9174 6.22117 12.9077 6.51161L12.9074 6.53105V17.7063C12.9078 17.9994 13.1184 18.2381 13.3819 18.2488L13.3995 18.2491H21.6614C21.9271 18.2487 22.1435 18.0164 22.1532 17.7258L22.1535 17.7063V6.53105C22.1531 6.2316 21.9329 5.9891 21.6614 5.9891ZM14.5796 15.9704V16.6207H13.9892V15.9704H14.5796ZM21.17 15.9704V16.6207H14.8752V15.9704H21.17ZM14.5796 13.1497V13.8H13.9892V13.1497H14.5796ZM21.17 13.1497V13.8H14.8752V13.1497H21.17ZM14.5796 10.4374V11.0877H13.9892V10.4374H14.5796ZM21.17 10.4374V11.0877H14.8752V10.4374H21.17ZM21.17 7.94183V8.59302H13.9892V7.94183H21.17Z"
    fill="#8E8F8F" />
  <path
    d="M21.6614 20.9598V20.9666C22.1404 20.9665 22.5311 21.3864 22.5462 21.9115L22.5466 21.9362V33.1115C22.5466 33.6424 22.1624 34.0744 21.6839 34.0876L21.6614 34.0879H13.3995C13.1648 34.0879 12.9396 33.985 12.7736 33.8019C12.614 33.6258 12.5216 33.3894 12.5147 33.1413L12.5143 33.1115V21.9362C12.5143 21.4053 12.8985 20.9733 13.377 20.9601L13.3995 20.9598H21.6614ZM21.6614 21.3942H13.3995C13.1339 21.3942 12.9174 21.6263 12.9077 21.9168L12.9074 21.9362V33.1115C12.9078 33.4046 13.1184 33.6433 13.3819 33.6539L13.3995 33.6543H21.6614C21.9259 33.6539 22.1418 33.4235 22.1531 33.1342L22.1535 33.1149V21.9396C22.1531 21.6466 21.9423 21.4082 21.679 21.3979L21.6614 21.3976V21.3942ZM14.5796 31.3781V32.0293H13.9892V31.3781H14.5796ZM21.17 31.3831V32.0242H14.8752V31.3831H21.17ZM14.5796 28.5574V29.2085H13.9892V28.5574H14.5796ZM21.17 28.5624V29.2035H14.8752V28.5624H21.17ZM14.5796 25.8459V26.4962H13.9892V25.8459H14.5796ZM21.17 25.8509V26.4912H14.8752V25.8509H21.17ZM21.17 23.3503V24.0015H13.9892V23.3503H21.17Z"
    fill="#8E8F8F" />
  <path
    d="M24.043 12.1187V12.6606H26.9935V27.4007H24.043V27.9435H26.9935H27.4856V27.4007V12.6606V12.1187H26.9935H24.043Z"
    fill="#8E8F8F" />
  <path
    d="M3.02058 2.54969C3.60238 1.49729 4.56073 0.883385 5.52885 0.526915L5.66089 0.479884L5.79285 0.435942C5.85877 0.414727 5.92458 0.394631 5.99017 0.375599L6.12101 0.338934C6.14275 0.333054 6.16446 0.327288 6.18613 0.321633L6.31568 0.289028C6.33719 0.283812 6.35864 0.278703 6.38005 0.2737L6.50784 0.244926L6.6342 0.218578L6.75893 0.194554L6.88181 0.172752L7.00265 0.153071L7.12123 0.135407L7.23735 0.11966L7.35079 0.105726L7.46137 0.0935047L7.62138 0.0781592L7.77376 0.0660917L7.91782 0.0569579L8.07442 0.0495503L8.21762 0.0451204L8.30511 0.0435513L8.38581 0.0429006H8.45942L8.55579 0.0442283L8.61021 0.045516L8.70943 0.0492089L8.7532 0.0516378V2.6564C6.66442 2.43719 5.73241 3.133 5.3214 3.8746L5.28437 3.94423C5.23106 4.0488 5.18767 4.15374 5.15241 4.25663L5.1301 4.32489C5.12657 4.33621 5.12314 4.3475 5.11981 4.35875L5.10089 4.4258L5.0841 4.49185L5.06931 4.55674C5.06701 4.56744 5.06478 4.5781 5.06263 4.58869L5.05063 4.65153C5.04878 4.66188 5.04699 4.67216 5.04528 4.68238L5.03581 4.74281L5.02788 4.80145L5.02137 4.85813L5.01401 4.93912L5.00921 5.0148L5.00685 5.07415L5.00578 5.12902L5.00578 5.17907L5.0066 5.224L5.00801 5.26348L5.01072 5.31176L5.01576 5.36872L5.01569 6.32565L5.0106 8.27936L5.00442 9.68726L4.99719 10.8716L4.98928 11.8725L4.98158 12.6606L4.97251 13.4277L4.96321 14.0818L4.95124 14.7748L4.94386 15.1358L4.93593 15.477L4.92567 15.857L4.92206 15.976L4.9217 16.1959L4.92062 16.3306L4.91927 16.4214L4.91599 16.559L4.91108 16.692L4.9071 16.773L4.90225 16.8544L4.89646 16.936L4.88581 17.0588L4.87728 17.1409L4.86751 17.223L4.85641 17.3052C4.85444 17.3189 4.85242 17.3326 4.85034 17.3463L4.83709 17.4284C4.83475 17.442 4.83236 17.4557 4.82989 17.4694L4.8143 17.5512L4.79705 17.6329L4.77805 17.7143C4.77141 17.7414 4.76447 17.7685 4.75721 17.7955L4.73445 17.8762L4.70969 17.9565L4.68284 18.0364C4.38037 18.8984 3.69545 19.6662 2.1445 20.0218C3.65327 20.3673 4.34247 21.1023 4.6573 21.9348L4.68617 22.0144C4.71393 22.0943 4.73843 22.1749 4.76004 22.2561L4.78071 22.3375C4.79386 22.3918 4.80579 22.4464 4.81661 22.5011L4.83203 22.5832C4.83446 22.5969 4.83683 22.6106 4.83913 22.6244L4.85221 22.7067L4.86383 22.7891L4.87409 22.8714L4.88306 22.9538L4.89084 23.036L4.89751 23.118L4.90315 23.1999L4.90989 23.3221L4.91334 23.4031L4.91758 23.5388L4.91945 23.6285L4.92071 23.7175L4.92172 23.8494L4.92206 24.0684L4.93261 24.4499L4.94204 24.8527L4.95073 25.2847L4.9587 25.7421L4.96716 26.3027L4.9787 27.229L4.98666 28.0141L4.99056 28.4557L4.99893 29.5838L5.00799 31.2575L5.01424 33.069L5.01652 33.0675V34.674L5.01418 34.6968L5.01148 34.731L5.00963 34.7617L5.00736 34.8187L5.00654 34.8637L5.00654 34.9137L5.00761 34.9686L5.00997 35.0279L5.0147 35.1026L5.01921 35.1553L5.02827 35.2384L5.03602 35.2962L5.04527 35.3557L5.05611 35.4169C5.05806 35.4272 5.06008 35.4376 5.06218 35.448L5.07564 35.5113C5.07804 35.522 5.08052 35.5327 5.08308 35.5434L5.09941 35.6085L5.1178 35.6746C5.12105 35.6857 5.12438 35.6968 5.1278 35.708L5.14949 35.7753C5.1571 35.7978 5.1651 35.8205 5.1735 35.8432L5.19996 35.9116C5.528 36.7228 6.39331 37.5991 8.63138 37.3983L8.75397 37.3863V39.9911L8.69124 39.9944L8.57499 39.9982L8.47935 40H8.36578L8.28069 39.9989L8.18852 39.997L8.08963 39.9939L7.9612 39.9882L7.8707 39.9831L7.77651 39.977L7.67883 39.9695L7.57784 39.9608L7.47373 39.9506L7.36669 39.939L7.25691 39.9257L7.14458 39.9108L7.02989 39.894C7.01059 39.8911 6.9912 39.888 6.97172 39.8849L6.85385 39.8653C6.83404 39.8619 6.81415 39.8584 6.79419 39.8548L6.67355 39.8321C6.65331 39.8281 6.633 39.8241 6.61262 39.82L6.48965 39.794C6.46904 39.7895 6.44838 39.7849 6.42766 39.7802L6.30278 39.7507L6.17687 39.7188C6.13474 39.7078 6.09248 39.6963 6.05011 39.6844L5.92269 39.6473C4.75224 39.2953 3.52278 38.5998 2.89031 37.2368C3.02744 35.5613 3.65212 34.1329 4.77427 33.2439C4.82709 33.2028 4.88058 33.163 4.93476 33.1244L4.99591 33.0816C4.91996 33.1334 4.84532 33.188 4.77198 33.2456C3.65212 34.1329 3.02744 35.5613 2.89031 37.2301C2.60876 36.603 2.46126 35.9132 2.45912 35.2135L2.44505 34.4953L2.42677 33.6248L2.4039 32.6059L2.37276 31.3071L2.34417 30.1807L2.30479 28.706L2.2604 27.1263L2.18617 24.6406L2.16811 24.0642C2.12419 22.7593 1.6493 22.1237 1.15509 21.8168L1.09689 21.7822C1.08718 21.7767 1.07747 21.7713 1.06776 21.766L1.00957 21.7357C0.990196 21.7261 0.970854 21.7169 0.95157 21.7082L0.893913 21.6832C0.874768 21.6753 0.855704 21.6678 0.836748 21.6607L0.780224 21.6406C0.761506 21.6343 0.74292 21.6283 0.72449 21.6227L0.680306 21.6099L0.636808 21.5983L0.594073 21.588L0.55218 21.5789L0.491087 21.5672L0.451637 21.5607L0.4133 21.5552L0.358051 21.5485L0.309393 21.5483L0.209851 21.5469C0.159272 21.5463 0.107413 21.5459 0.0539753 21.5469L0 21.5485V18.4959C0.129508 18.5009 0.245303 18.4984 0.358051 18.4917L0.4133 18.485L0.451637 18.4795L0.491087 18.473L0.55218 18.4614L0.594073 18.4522L0.636808 18.4419L0.680306 18.4303L0.72449 18.4175L0.780224 18.3996L0.836748 18.3795L0.893913 18.357C1.46827 18.1201 2.11643 17.5112 2.16811 15.976L2.23546 13.7685L2.2873 11.9651L2.31545 10.9416L2.35852 9.2999L2.38678 8.15804L2.40725 7.2883L2.43302 6.12386L2.44796 5.39984L2.45912 4.82592C2.47626 3.92137 2.67838 3.18712 2.99928 2.59097L3.02073 2.55159L3.02058 2.54969ZM31.246 2.61355V0.00878521L31.3095 0.00544396L31.3977 0.00238972L31.4548 0.00111345L31.5558 0H31.6327L31.7171 0.000920364L31.8473 0.00388831L32.0132 0.0103996L32.1021 0.015114L32.1947 0.0209238L32.3402 0.0318937L32.4412 0.0408447L32.5453 0.0512134L32.6523 0.0630919L32.7619 0.0765723L32.8741 0.0917466L32.9885 0.108707L33.1051 0.127546L33.2235 0.148354C33.2434 0.151992 33.2634 0.155715 33.2835 0.159527L33.4045 0.183463L33.527 0.209601L33.6508 0.238031L33.7756 0.268846L33.9014 0.302137C33.9645 0.319418 34.0279 0.337662 34.0914 0.35692L34.2186 0.396807C35.4076 0.782001 36.63 1.53295 37.2042 2.98662C37.4226 3.55481 37.5371 4.16506 37.5409 4.78223L37.5549 5.50048L37.5732 6.37111L37.5861 6.95365L37.6063 7.82554L37.6343 8.97386L37.6558 9.81555L37.6952 11.2904L37.7396 12.8701L37.8138 15.3559L37.8319 15.9323C37.8765 17.259 38.3666 17.8935 38.8696 18.1944L38.9277 18.2276C38.9373 18.2329 38.947 18.2381 38.9567 18.2432L39.0146 18.2722L39.0724 18.2986C39.0819 18.3028 39.0915 18.3069 39.1011 18.3109L39.1581 18.3335C39.1676 18.3371 39.177 18.3406 39.1864 18.3439L39.2425 18.3631C39.2517 18.3661 39.261 18.369 39.2702 18.3719L39.3524 18.3952L39.4059 18.4083L39.4582 18.4196L39.5089 18.4292L39.5484 18.4357L39.5867 18.4413L39.6419 18.448C39.7386 18.4538 39.8391 18.4564 39.946 18.4539L40 18.4522V21.5057C39.8705 21.5006 39.7547 21.5031 39.6419 21.5099L39.6054 21.5141L39.5677 21.5192L39.5089 21.5286L39.4478 21.5402L39.4059 21.5494L39.3632 21.5597L39.3197 21.5712L39.2755 21.5841L39.2477 21.5928L39.1916 21.6118C39.1822 21.6151 39.1727 21.6186 39.1633 21.6221L39.1061 21.6446C39.0965 21.6485 39.0869 21.6526 39.0773 21.6567L39.0195 21.683C38.4684 21.9447 37.881 22.5671 37.8319 24.0256L37.7645 26.232L37.7127 28.0355L37.6845 29.059L37.6415 30.7009L37.6132 31.8428L37.5927 32.7126L37.567 33.877L37.552 34.601L37.5409 35.1748C37.5365 35.7117 37.4501 36.2438 37.2853 36.7486L37.2656 36.8078L37.2666 36.8133C36.6777 38.491 35.2532 39.2798 33.9378 39.6469L33.8088 39.6817C33.7874 39.6873 33.766 39.6927 33.7447 39.6981L33.6171 39.729C33.5959 39.7339 33.5748 39.7387 33.5538 39.7435L33.4281 39.7707C33.4072 39.775 33.3865 39.7793 33.3658 39.7834L33.2424 39.8072C33.222 39.8109 33.2017 39.8146 33.1814 39.8182L33.0609 39.8387L32.9424 39.8572L32.8262 39.8738L32.7126 39.8886L32.6016 39.9016L32.4935 39.913L32.3373 39.9272L32.2374 39.9349L32.0944 39.9441L31.9601 39.9508L31.7958 39.9563L31.7024 39.958L31.6166 39.9587H31.5388L31.4693 39.9578L31.4085 39.9566L31.3347 39.9542L31.2705 39.9513L31.2483 39.9499V37.3452C33.435 37.5747 34.354 36.8013 34.7346 36.0225L34.7672 35.9527C34.7776 35.9295 34.7876 35.9063 34.7971 35.8831L34.8244 35.8138C34.833 35.7908 34.8413 35.7678 34.8491 35.7449L34.8714 35.6767L34.8914 35.6092C34.8946 35.598 34.8977 35.5869 34.9006 35.5758L34.9174 35.5097L34.9322 35.4448L34.9451 35.3813L34.9562 35.3192L34.9657 35.2588L34.9736 35.2001L34.9802 35.1434L34.9875 35.0625L34.991 35.0114L34.9947 34.9274L34.9957 34.8726L34.9957 34.8225L34.9949 34.7776L34.9935 34.7381L34.9917 34.7044L34.9881 34.6556L34.9858 34.6329V33.2044L34.9894 31.8744L34.9954 30.5022L35.0023 29.3456L35.0115 28.1649L35.0222 27.1053L35.0297 26.4892L35.0367 25.993L35.046 25.4239L35.0527 25.0637L35.0599 24.7211L35.0676 24.398L35.0779 24.0247L35.0783 23.8057L35.0794 23.6724L35.0807 23.5825L35.0826 23.4919L35.087 23.3547L35.0911 23.2626L35.0956 23.1806L35.101 23.0983L35.1075 23.0158L35.115 22.9331L35.1238 22.8503L35.1338 22.7674C35.1356 22.7536 35.1374 22.7397 35.1393 22.7259L35.1514 22.643L35.165 22.5602L35.1801 22.4775L35.197 22.395C35.2176 22.2989 35.2418 22.2032 35.2702 22.1085L35.2956 22.0275C35.3309 21.9199 35.3719 21.8136 35.4195 21.7093L35.4565 21.6314C35.8135 20.9079 36.5073 20.2872 37.8555 19.9781C36.1551 19.5887 35.4957 18.7049 35.24 17.7443L35.2193 17.663C35.2061 17.6086 35.1942 17.5541 35.1834 17.4994L35.168 17.4173C35.1655 17.4036 35.1632 17.3899 35.1609 17.3762L35.1478 17.2939L35.1362 17.2115L35.1259 17.1292L35.1169 17.0468L35.1092 16.9646L35.1025 16.8826L35.0968 16.8008L35.0901 16.6786L35.0867 16.5976L35.0824 16.4619L35.0805 16.3722L35.0793 16.2832L35.0783 16.1513L35.0779 15.9323L35.0707 15.6778L35.0626 15.3541L35.0536 14.9377L35.0452 14.4941L35.0376 14.0271L35.0285 13.3744L35.0177 12.4359L35.0096 11.5588L35.002 10.5428L34.9922 8.73624L34.9858 6.77866C35.1201 6.69683 35.2503 6.60708 35.3758 6.50978C36.0015 6.01532 36.4726 5.34912 36.7902 4.56541L36.8121 4.51054C36.4941 5.31813 36.0152 6.00412 35.3735 6.51062C35.2689 6.5917 35.1611 6.66754 35.0503 6.73793L34.9835 6.7795V5.32587L34.9858 5.30312L34.9885 5.26891L34.9904 5.23822L34.9926 5.18115L34.9935 5.13622L34.9935 5.08616L34.9924 5.0313L34.99 4.97195L34.9871 4.92276L34.9808 4.84455L34.9717 4.76152L34.964 4.70373L34.9547 4.64417L34.9439 4.58301C34.9419 4.57269 34.9399 4.56231 34.9378 4.55187L34.9244 4.48857C34.922 4.47791 34.9195 4.46721 34.9169 4.45645L34.9006 4.39137L34.8822 4.32529C34.879 4.3142 34.8756 4.30307 34.8722 4.29192L34.8505 4.22462C34.8429 4.20208 34.8349 4.17943 34.8265 4.15671L34.8 4.08834C34.472 3.27711 33.6067 2.40078 31.3686 2.60161L31.246 2.61355Z"
    fill="#FE0902" />
  <path
    d="M4.87024 6.21994C4.89385 6.23885 4.91804 6.2567 4.94242 6.27414L5.01574 6.32581V5.36877L5.0134 5.34602L5.0107 5.31181L5.00884 5.28112L5.00658 5.22405L5.00576 5.17912L5.00576 5.12907L5.00683 5.0742L5.00919 5.01485L5.01213 4.96501L5.01614 4.91273L5.02135 4.85818L5.02786 4.8015L5.03579 4.74286L5.04526 4.68243L5.05639 4.62035C5.05839 4.60987 5.06046 4.59934 5.06261 4.58874L5.07644 4.5245L5.09222 4.45901C5.09502 4.448 5.0979 4.43695 5.10087 4.42585L5.11979 4.3588C5.12312 4.34755 5.12655 4.33626 5.13008 4.32494L5.15239 4.25668C5.18765 4.15379 5.23104 4.04885 5.28435 3.94428L5.32138 3.87465C5.73239 3.13305 6.6644 2.43724 8.75318 2.65645V0.0516873L8.70941 0.0492584L8.63432 0.0462904L8.58399 0.0448879L8.4594 0.0430557L8.3858 0.0429501L8.30509 0.0436008L8.17143 0.0463494L8.0492 0.0506129L7.9178 0.0570074L7.77375 0.0661412L7.62136 0.0782087L7.51549 0.0880536L7.35078 0.105776L7.23733 0.119709L7.12121 0.135457L7.00263 0.15312L6.88179 0.172802L6.75891 0.194604L6.63418 0.218627L6.50782 0.244975L6.38003 0.273749C6.35862 0.278753 6.33717 0.283862 6.31566 0.289078L6.18612 0.321683C6.16444 0.327337 6.14273 0.333104 6.12099 0.338984L5.99015 0.375649C5.92456 0.394681 5.85875 0.414776 5.79283 0.435992L5.66087 0.479933L5.52883 0.526964C4.56071 0.883434 3.60236 1.49734 3.02056 2.54974C3.20873 4.08655 3.82275 5.3965 4.87024 6.21994ZM8.75395 39.9912V37.3864C6.46934 37.6262 5.56856 36.7713 5.21975 35.9591L5.19119 35.8896C5.17756 35.855 5.16491 35.8205 5.15316 35.7862L5.13084 35.7179C5.12732 35.7066 5.12389 35.6953 5.12055 35.684L5.10163 35.617L5.08484 35.5509L5.07005 35.4861L5.05715 35.4225L5.04602 35.3604L5.03655 35.3L5.02862 35.2413L5.02211 35.1847L5.01476 35.1037L5.00995 35.028L5.00759 34.9686L5.00652 34.9138L5.00652 34.8637L5.00734 34.8188L5.00875 34.7793L5.01052 34.7456L5.01416 34.6968L5.0165 34.6726V33.0675C4.93423 33.1235 4.85348 33.1824 4.77425 33.244C3.6521 34.133 3.02742 35.5614 2.89029 37.2368C3.52276 38.5999 4.75222 39.2953 5.92267 39.6474L6.05009 39.6844C6.09246 39.6964 6.13472 39.7078 6.17685 39.7189L6.30276 39.7508L6.42764 39.7802L6.5513 39.8073C6.57179 39.8116 6.59223 39.8159 6.6126 39.82L6.73406 39.8437C6.75417 39.8475 6.77421 39.8512 6.79417 39.8548L6.91301 39.8754C6.93266 39.8787 6.95222 39.8819 6.9717 39.885L7.0875 39.9027C7.10662 39.9055 7.12564 39.9082 7.14456 39.9108L7.25689 39.9258L7.36667 39.939L7.47371 39.9507L7.57782 39.9609L7.67881 39.9696L7.77649 39.977L7.87068 39.9832L8.00499 39.9904L8.08961 39.9939L8.1885 39.997L8.28067 39.999L8.36576 39.9999L8.47933 39.9997L8.57497 39.9982L8.65146 39.996L8.75395 39.9912ZM37.2041 2.98667C36.5934 1.44047 35.2493 0.689294 33.9921 0.327656L33.8667 0.292776L33.7421 0.260403C33.7214 0.255211 33.7007 0.25012 33.6801 0.245128L33.5569 0.216345C33.5365 0.211741 33.5161 0.207232 33.4958 0.202816L33.3745 0.177422L33.2548 0.154175L33.1367 0.132983L33.0204 0.113758L32.9062 0.0964096L32.7942 0.0808467L32.6846 0.0669795L32.5776 0.0547181L32.4734 0.0439723L32.3226 0.0304982L32.1791 0.0199274L32.0434 0.0119557L31.9162 0.00627908L31.8365 0.00361946L31.7404 0.00135988L31.6516 0.00021669L31.5706 0L31.4977 0.000519932L31.4332 0.0015866L31.3533 0.00379637L31.2945 0.00616822L31.246 0.00883472V2.6136C33.5306 2.37384 34.4314 3.2287 34.7802 4.04086L34.8088 4.11034C34.8224 4.14501 34.8351 4.17953 34.8468 4.21383L34.8691 4.28209C34.8726 4.29341 34.8761 4.30469 34.8794 4.31594L34.8983 4.383L34.9151 4.44905L34.9299 4.51393L34.9428 4.57749L34.9539 4.63957L34.9634 4.70001L34.9713 4.75865L34.9779 4.81532L34.9852 4.89632L34.99 4.972L34.9924 5.03135L34.9934 5.08621L34.9934 5.13627L34.9926 5.1812L34.9912 5.22067L34.9885 5.26896L34.9835 5.32631V6.77955C35.1178 6.69772 35.248 6.60797 35.3735 6.51067C36.389 5.70907 36.9969 4.45794 37.2041 2.98667ZM35.4741 33.5347C35.3183 33.4125 35.1552 33.3022 34.9857 33.2045V34.6329L34.9881 34.6557L34.9908 34.6899L34.9926 34.7206L34.9949 34.7776L34.9957 34.8226L34.9957 34.8726L34.9947 34.9275L34.991 35.0114L34.9875 35.0625L34.9801 35.1435L34.9736 35.2002L34.9657 35.2588L34.9562 35.3192L34.9451 35.3813L34.9322 35.4449L34.9174 35.5098L34.9006 35.5758C34.8976 35.5869 34.8946 35.5981 34.8914 35.6092L34.8714 35.6767L34.8491 35.745C34.8413 35.7679 34.833 35.7908 34.8244 35.8139L34.7971 35.8832C34.7876 35.9063 34.7776 35.9296 34.7672 35.9528L34.7345 36.0225C34.3539 36.8014 33.435 37.5747 31.2483 37.3452V39.95L31.2833 39.952L31.3839 39.9559L31.5075 39.9584L31.5826 39.9588L31.7106 39.958L31.8057 39.9561L31.908 39.9529L32.0348 39.9474L32.1701 39.9396L32.2648 39.9329L32.4131 39.9207L32.5158 39.9108L32.6214 39.8994L32.7297 39.8865L32.8406 39.8719L32.9538 39.8556L33.0691 39.8374L33.1865 39.8174C33.2062 39.8139 33.226 39.8103 33.2458 39.8066L33.3658 39.7835L33.4872 39.7582C33.5076 39.7538 33.528 39.7493 33.5485 39.7447L33.6719 39.716C33.6925 39.7111 33.7132 39.706 33.734 39.7008L33.8589 39.6685C35.1957 39.3111 36.6659 38.5247 37.2666 36.8133C37.0289 35.4463 36.4301 34.2901 35.4741 33.5347Z"
    fill="#FFAB00" />
</svg>