<?xml version="1.0" encoding="UTF-8" standalone="no"?>

        <svg
            width="100%"
            viewBox="0 -2 54 54"
            version="1.1"
            xmlns="http://www.w3.org/2000/svg"
        >
            <path
                fill="#c60a05"
                d="m 1.4647008,32.956108 c -1.02349998,-2.4148 -1.68439998,-5.7299 -1.39729998,-7.0083 0.0172,-0.0766 1.34969998,0.0134 1.73069998,0.1168 0.2933,0.0797 0.3044,0.1071 0.3424,0.8387 0.1233,2.3786 1.2668,5.6076 3.1217,8.8154 l 0.8212,1.4201 -0.4896,0.5946 c -0.2692,0.327 -0.5756,0.6889 -0.6808,0.8045 l -0.1915,0.2099 -1.392,-2.338 c -0.829,-1.3924 -1.5832,-2.7894 -1.8648,-3.4537 z m 4.4881,6.9705 c 0.0793,-0.1006 0.571,-0.6773 1.0924,-1.2813 4.3356002,-5.0213 8.0770002,-11.4521 9.8997002,-17.0156 l 0.3984,-1.2156 0.7953,1.2498 0.7954,1.2497 -0.307,0.9597 c -1.5965,4.991 -5.5399,11.5329 -9.9824002,16.5609 -1.3134,1.4865 -1.2152,1.4536 -1.9428,0.6515 -0.2628,-0.2896 -0.5713,-0.6278 -0.6855,-0.7514 -0.1512,-0.1635 -0.1684,-0.2747 -0.0635,-0.4077 z m 3.1606,2.5424 c 4.1116002,-4.2833 8.3939002,-10.9957 10.6830002,-16.745 l 0.3233,-0.8121 0.7707,1.2812 0.7707,1.2811 -0.6738,1.5205 c -2.1769,4.9121 -6.0951,10.8298 -9.5408,14.4098 -0.2731,0.2837 -0.5477,0.5789 -0.6104,0.6561 -0.1065,0.1313 -1.8601002,-0.8226 -2.0293002,-1.1038 -0.0342,-0.0569 0.1038,-0.2764 0.3066,-0.4878 z m 4.3841002,1.1849 c 3.2039,-3.6197 6.6997,-8.8484 8.4545,-12.6451 0.2867,-0.6204 0.5872,-1.2563 0.6676,-1.4131 l 0.1463,-0.2851 0.74239,1.234 0.7423,1.2341 -0.4698,0.9838 c -1.70499,3.5707 -4.67519,8.0452 -7.57169,11.4064 l -0.6852,0.795 -0.5748,0.0442 c -0.6552,0.0505 -2.2822,-0.0944 -2.3514,-0.2094 -0.0253,-0.042 0.3797,-0.5571 0.8998,-1.1448 z M 0.70700082,23.331308 c 0.58969998,-1.4109 0.49849998,-1.3688 2.37729998,-1.0956 3.285,0.4779 7.0528002,1.6773 9.8839002,3.1467 l 0.5472,0.2839 -0.4513,0.8917 c -0.55,1.0869 -0.4823,1.0468 -1.1968,0.7065 -3.0688002,-1.4607 -7.1386002,-2.6325 -10.2949002,-2.9639 -1.30299998,-0.1369 -1.24189998,-0.0685 -0.86539998,-0.9693 z m 4.54659998,8.4121 c -0.8119,-1.9156 -1.6418,-5.2617 -1.3176,-5.3132 0.0489,-0.0077 0.6257,0.1192 1.2814,0.2821 l 1.1927,0.2962 0.2016,1.006 c 0.3339,1.6667 0.8374,3.1439 1.7786,5.2189 l 0.2768,0.6106 -0.4808,0.6615 c -0.9042,1.2439 -0.7346,1.2733 -1.6569,-0.2875 -0.4416,-0.7475 -1.0159,-1.861 -1.2758,-2.4746 z m -2.5033,-11.4741 c 0.0897,-0.1639 1.4505,-1.3584 1.7585,-1.5437 0.9828,-0.5913 10.8038002,2.3709 10.5412002,3.1794 -0.1931,0.5939 -0.7795,2.0132 -0.8456,2.0466 -0.0417,0.021 -0.8866,-0.3291 -1.8777,-0.7778 -2.5401002,-1.1501 -3.9419002,-1.6017 -6.9759002,-2.2478 -1.458,-0.3105 -2.6283,-0.606 -2.6005,-0.6567 z m 6.4009,10.1294 c -0.3683,-0.992 -0.8135,-2.4935 -0.7859,-2.6508 0.018,-0.1023 2.8624002,1.0817 3.1916002,1.3285 0.1112,0.0833 -1.3991,2.7832 -1.6369002,2.9263 -0.0961,0.0578 -0.3443,-0.46 -0.7688,-1.604 z m 9.6992002,13.2342 c 1.7954,-2.1105 4.70799,-6.5872 6.08919,-9.3593 l 0.3678,-0.7382 0.5466,0.9095 c 1.6056,2.6714 -1.458,7.059 -6.63369,9.5007 -0.87,0.4105 -0.937,0.3537 -0.3699,-0.3127 z M 7.6524008,16.921008 c 3.4760002,-1.5129 6.8928002,-1.2755 7.9942002,0.5553 l 0.5114,0.85 -0.2443,0.8537 -0.2443,0.8534 -0.4653,-0.2312 c -1.606,-0.7979 -4.2413,-1.7161 -6.3756002,-2.2213 -1.739,-0.4116 -1.7423,-0.4135 -1.1761,-0.6599 z m 8.9839002,-2.0245 c 0.0596,-0.2137 0.2278,-0.4038 0.5042,-0.5701 0.9041,-0.5439 0.278,-1.4156 6.95429,9.6823 6.6763,11.098 6.1996,10.1364 5.2954,10.6803 -0.9041,0.5439 -0.278,1.4156 -6.95429,-9.6823 -5.8107,-9.6592 -5.8881,-9.794 -5.7996,-10.1102 z m 3.3177,-1.9959 c 0.0596,-0.2137 0.2278,-0.4038 0.5042,-0.5701 0.9042,-0.5439 0.278,-1.4156 6.95429,9.6824 6.6763,11.0979 6.1996,10.1363 5.2954,10.6802 -0.9041,0.5439 -0.278,1.4156 -6.9543,-9.6823 -5.81069,-9.6591 -5.88799,-9.794 -5.79959,-10.1102 z m 3.31769,-1.9959 c 0.0596,-0.2137 0.2278,-0.4037 0.5042,-0.57 0.9042,-0.5439603 0.278,-1.4156402 6.9543,9.6823 6.6763,11.0979 6.1996,10.1363 5.2955,10.6802 -0.9042,0.544 -0.2781,1.4156 -6.9543,-9.6823 -5.8108,-9.6591 -5.8881,-9.794 -5.7997,-10.1102 z m 3.5683,-2.0457202 c 0.1378,-1.27993 0.9043,-2.83768 2.0215,-4.10822 0.8354,-0.9502 0.8552,-0.86674 0.2822,1.18899 -0.4694,1.68396 -0.8839,3.7322099 -1.0825,5.3500502 l -0.053,0.4319 -0.6268,-1.0344 -0.6269,-1.0345503 z m 2.8136,4.4171202 c 0.1641,-3.3176903 0.9539,-6.8465802 2.3243,-10.3852902 0.3432,-0.88581 0.3593,-0.90624 1.0434,-1.3168 0.676,-0.40561 2.0314,-1.012968 2.2677,-1.016064 0.0645,-9.23e-4 -0.1757,0.667714 -0.534,1.485804 -1.597,3.64689 -3.0153,9.3508502 -2.9198,11.7421502 0.017,0.4282 0.0806,0.3867 -1.0516,0.6867 -1.1395,0.3019 -1.201,0.237 -1.13,-1.1965 z m 1.1719,2.9504 c 0.0509,-0.0306 0.99,-0.267 2.087,-0.5252 6.1333,-1.4444 12.01509,-1.8225 18.16471,-1.168 l 1.57211,0.1674 0.14403,0.5964 c 0.0791,0.328 0.17274,0.8736 0.2079,1.2123 l 0.0641,0.6161 -1.80393,-0.1908 c -5.71299,-0.6043 -12.71182,-0.1621 -18.16512,1.1476 l -1.0486,0.2518 -0.6573,-1.026 c -0.3615,-0.5643 -0.6157,-1.051 -0.5649,-1.0816 z m 2.1715,3.6271 c 0.1263,-0.0755 3.2603,-0.698 4.3829,-0.8706 4.648,-0.7145 9.94509,-0.8069 14.49748,-0.2529 1.40632,0.1713 1.30451,0.0501 1.08039,1.2855 -0.21992,1.2117 -0.17187,1.178 -1.48308,1.0378 -4.98716,-0.5335 -10.75129,-0.286 -15.86269,0.6811 l -1.4254,0.2696 -0.6337,-1.052 c -0.3486,-0.5785 -0.5987,-1.073 -0.5559,-1.0985 z m 3.6397,3.4141 c 4.8166,-0.8335 9.92786,-1.007 14.73947,-0.5004 0.53912,0.0568 0.50943,0.2247 -0.19856,1.125 -0.92876,1.1808 -0.71846,1.12 -3.65387,1.0567 -3.53402,-0.0761 -7.36154,0.1671 -10.22344,0.6497 l -0.8653,0.1459 -0.6652,-1.1059 -0.6653,-1.1058 z m 0.8044,4.0448 c 0.5164,-0.3107 6.74137,-0.7546 9.46679,-0.6752 l 1.16888,0.0341 -1.48129,0.8235 c -2.9999,1.6677 -6.13888,2.0701 -8.21368,1.0532 -0.3256,-0.1597 -1.0805,-1.1515 -0.9407,-1.2356 z m -3.7514,-14.7822 c 0.3654,-3.6489202 1.5367,-7.6498202 3.299,-11.2684502 L 37.603091,0 l 0.9606,0.00748 c 1.5179,0.01183 1.4977,-0.0161 0.8909,1.2308974 -1.5563,3.19793 -2.8807,7.3271 -3.3475,10.4357306 l -0.2461,1.6394 -0.781,0.1567 c -1.3308,0.2667 -1.4758,0.2925 -1.4923,0.2647 -0.009,-0.0149 0.0371,-0.5569 0.102,-1.2046 z m 4.159,-0.8005 c 0.466,-2.9292202 1.6255,-6.5688802 3.0093,-9.4462002 0.8905,-1.851617 0.7888,-1.781426 1.8399,-1.27051 1.05549,0.51307 1.00918,0.38171 0.4935,1.40069 -1.3635,2.69403 -2.6474,6.75088 -3.1654,10.0033202 l -0.0574,0.3598 -1.1396,0.1329 c -0.6267,0.0733 -1.1483,0.1183 -1.1591,0.1004 -0.0109,-0.0181 0.0697,-0.5942 0.1788,-1.2804 z m 4.1411,-0.4196 c 0.4817,-2.4518002 2.54301,-8.3961702 3.00863,-8.6761102 0.0857,-0.05157 1.38719,1.15194 1.53455,1.41912 0.0672,0.12188 -0.0923,0.65809 -0.43108,1.45017 -0.29593,0.69119 -0.89776,2.5383 -1.33764,4.1045199 -0.43988,1.5662003 -0.82732,2.8642003 -0.86103,2.8845003 -0.10404,0.0626 -2.08433,0.1386 -2.11863,0.0813 -0.0178,-0.0296 0.0744,-0.5982 0.2052,-1.2635 z m 4.347,-0.9687 c 0.30303,-1.1420702 0.77046,-2.6619002 1.03861,-3.3773402 l 0.48748,-1.30082 0.3036,0.34094 c 0.16699,0.18744 0.49653,0.65562 0.7324,1.0402 l 0.42872,0.69913 -0.68744,2.4125902 -0.68731,2.4126 -1.05754,-0.0319 c -1.28572,-0.0387 -1.20996,0.2591 -0.55852,-2.1954 z m 3.82449,0.7888 0.38458,-1.3615803 0.21726,0.3611803 c 0.35256,0.586 1.20449,2.5018 1.1716,2.6349 -0.0338,0.1367 -1.90799,-0.0231 -2.06066,-0.1756 -0.0535,-0.0535 0.0759,-0.71 0.28722,-1.4589 z"
            />
        </svg>
